<svg width="533" height="145" viewBox="0 0 533 145" fill="none" xmlns="http://www.w3.org/2000/svg">
<path fill-rule="evenodd" clip-rule="evenodd" d="M52.2509 4.75129C60.9142 -0.250429 71.5877 -0.25043 80.2509 4.75129L118.502 26.8355C127.165 31.8372 132.502 41.0808 132.502 51.0842V95.2526C132.502 105.256 127.165 114.5 118.502 119.501L80.2509 141.585C71.5877 146.587 60.9142 146.587 52.2509 141.585L14 119.501C5.33677 114.5 0 105.256 0 95.2526V51.0842C0 41.0808 5.33677 31.8372 14 26.8355L52.2509 4.75129ZM68.6977 20.9273L74.6253 32.129C84.1949 50.2135 87.4373 70.1435 85.6799 85.8042C85.262 89.5285 84.554 93.0741 83.5486 96.331C88.1689 101.48 94.1507 104.692 101.147 107.855L97.8525 115.145C91.6173 112.327 85.4257 109.166 80.1491 104.269C79.8291 104.821 79.4959 105.356 79.1496 105.873C75.6026 111.17 70.4849 114.828 63.9805 114.992C53.1968 115.265 46.3239 108.364 42.1474 100.294C42.0285 101.069 41.9003 101.832 41.7623 102.579C41.0579 106.391 40.0459 110.084 38.515 112.903L31.485 109.084C32.4142 107.374 33.2423 104.66 33.8955 101.125C34.536 97.6591 34.9596 93.6848 35.2185 89.637C35.5705 84.1338 35.6102 78.6265 35.5085 74.2914C35.3586 72.3182 35.2871 70.471 35.2789 68.8109L43.2701 68.5257C43.3672 69.9867 43.4498 71.813 43.5011 73.891C43.9896 80.1011 45.3279 87.5645 47.9778 93.8831C51.4436 102.147 56.5069 107.179 63.778 106.995C67.029 106.912 69.9915 105.171 72.5023 101.422C73.226 100.341 73.8955 99.1125 74.5014 97.7474C73.4408 96.2086 72.4516 94.54 71.5456 92.7228C65.4955 80.5874 63.4854 62.4932 67.1208 33.5022L68.6977 20.9273ZM77.5246 86.5379C77.5996 86.0044 77.668 85.4624 77.7298 84.9121C78.8644 74.8011 77.6671 62.4493 73.5922 50.0792C72.5973 67.2077 74.2883 78.5963 77.5246 86.5379ZM81 115C83.2091 115 85 113.209 85 111C85 108.791 83.2091 107 81 107C78.7909 107 77 108.791 77 111C77 113.209 78.7909 115 81 115Z" fill="#94a3b8"/>
<path d="M482.248 79.8C482.248 74.36 483.336 69.592 485.512 65.496C487.752 61.336 490.824 58.136 494.728 55.896C498.632 53.656 503.112 52.536 508.168 52.536C514.568 52.536 519.848 54.072 524.008 57.144C528.232 60.152 531.08 64.472 532.552 70.104H520.744C519.784 67.48 518.248 65.432 516.136 63.96C514.024 62.488 511.368 61.752 508.168 61.752C503.688 61.752 500.104 63.352 497.416 66.552C494.792 69.688 493.48 74.104 493.48 79.8C493.48 85.496 494.792 89.944 497.416 93.144C500.104 96.344 503.688 97.944 508.168 97.944C514.504 97.944 518.696 95.16 520.744 89.592H532.552C531.016 94.968 528.136 99.256 523.912 102.456C519.688 105.592 514.44 107.16 508.168 107.16C503.112 107.16 498.632 106.04 494.728 103.8C490.824 101.496 487.752 98.296 485.512 94.2C483.336 90.04 482.248 85.24 482.248 79.8Z" fill="#94a3b8"/>
<path d="M448.792 107.16C443.8 107.16 439.288 106.04 435.256 103.8C431.224 101.496 428.056 98.296 425.752 94.2C423.448 90.04 422.296 85.24 422.296 79.8C422.296 74.424 423.48 69.656 425.848 65.496C428.216 61.336 431.448 58.136 435.544 55.896C439.64 53.656 444.216 52.536 449.272 52.536C454.328 52.536 458.904 53.656 463 55.896C467.096 58.136 470.328 61.336 472.696 65.496C475.064 69.656 476.248 74.424 476.248 79.8C476.248 85.176 475.032 89.944 472.6 94.104C470.168 98.264 466.84 101.496 462.616 103.8C458.456 106.04 453.848 107.16 448.792 107.16ZM448.792 97.656C451.608 97.656 454.232 96.984 456.664 95.64C459.16 94.296 461.176 92.28 462.712 89.592C464.248 86.904 465.016 83.64 465.016 79.8C465.016 75.96 464.28 72.728 462.808 70.104C461.336 67.416 459.384 65.4 456.952 64.056C454.52 62.712 451.896 62.04 449.08 62.04C446.264 62.04 443.64 62.712 441.208 64.056C438.84 65.4 436.952 67.416 435.544 70.104C434.136 72.728 433.432 75.96 433.432 79.8C433.432 85.496 434.872 89.912 437.752 93.048C440.696 96.12 444.376 97.656 448.792 97.656Z" fill="#94a3b8"/>
<path d="M394.6 52.536C398.76 52.536 402.472 53.4 405.736 55.128C409.064 56.856 411.656 59.416 413.512 62.808C415.368 66.2 416.296 70.296 416.296 75.096V106.296H405.448V76.728C405.448 71.992 404.264 68.376 401.896 65.88C399.528 63.32 396.296 62.04 392.2 62.04C388.104 62.04 384.84 63.32 382.408 65.88C380.04 68.376 378.856 71.992 378.856 76.728V106.296H367.912V53.4H378.856V59.448C380.648 57.272 382.92 55.576 385.672 54.36C388.488 53.144 391.464 52.536 394.6 52.536Z" fill="#94a3b8"/>
<path d="M311.608 79.8C311.608 74.36 312.696 69.592 314.872 65.496C317.112 61.336 320.184 58.136 324.088 55.896C327.992 53.656 332.472 52.536 337.528 52.536C343.928 52.536 349.208 54.072 353.368 57.144C357.592 60.152 360.44 64.472 361.912 70.104H350.104C349.144 67.48 347.608 65.432 345.496 63.96C343.384 62.488 340.728 61.752 337.528 61.752C333.048 61.752 329.464 63.352 326.776 66.552C324.152 69.688 322.84 74.104 322.84 79.8C322.84 85.496 324.152 89.944 326.776 93.144C329.464 96.344 333.048 97.944 337.528 97.944C343.864 97.944 348.056 95.16 350.104 89.592H361.912C360.376 94.968 357.496 99.256 353.272 102.456C349.048 105.592 343.8 107.16 337.528 107.16C332.472 107.16 327.992 106.04 324.088 103.8C320.184 101.496 317.112 98.296 314.872 94.2C312.696 90.04 311.608 85.24 311.608 79.8Z" fill="#94a3b8"/>
<path d="M251.272 79.608C251.272 74.296 252.36 69.592 254.536 65.496C256.776 61.4 259.784 58.232 263.56 55.992C267.4 53.688 271.624 52.536 276.232 52.536C280.392 52.536 284.008 53.368 287.08 55.032C290.216 56.632 292.712 58.648 294.568 61.08V53.4H305.608V106.296H294.568V98.424C292.712 100.92 290.184 103 286.984 104.664C283.784 106.328 280.136 107.16 276.04 107.16C271.496 107.16 267.336 106.008 263.56 103.704C259.784 101.336 256.776 98.072 254.536 93.912C252.36 89.688 251.272 84.92 251.272 79.608ZM294.568 79.8C294.568 76.152 293.8 72.984 292.264 70.296C290.792 67.608 288.84 65.56 286.408 64.152C283.976 62.744 281.352 62.04 278.536 62.04C275.72 62.04 273.096 62.744 270.664 64.152C268.232 65.496 266.248 67.512 264.712 70.2C263.24 72.824 262.504 75.96 262.504 79.608C262.504 83.256 263.24 86.456 264.712 89.208C266.248 91.96 268.232 94.072 270.664 95.544C273.16 96.952 275.784 97.656 278.536 97.656C281.352 97.656 283.976 96.952 286.408 95.544C288.84 94.136 290.792 92.088 292.264 89.4C293.8 86.648 294.568 83.448 294.568 79.8Z" fill="#94a3b8"/>
<path d="M245.272 39.576V106.296H234.328V60.6001L213.976 106.296H206.392L185.944 60.6001V106.296H175V39.576H186.808L210.232 91.8961L233.56 39.576H245.272Z" fill="#94a3b8"/>
</svg>
